# xmcd
#
# Track frame offsets:
# 150
# 14238
# 28011
# 44152
# 61798
# 82055
# 101499
# 116096
# 134704
# 153373
#
# Disc length: 2666 seconds
#
#
# Revision: 0
# Processed by: cddbd v1.5.2PL0 Copyright (c) Steve Scherf et al.
# Submitted via: FreeRIP 2.944 
#
DISCID=8f0a680a
DTITLE=Mika - Life In Cartoon Motion
DYEAR=2007
DGENRE=Pop
TTITLE0=01 - Grace Kelly
TTITLE1=02 - Lollipop
TTITLE2=03 - My Interpretation
TTITLE3=04 - Love Today
TTITLE4=05 - Relax, Take It Easy
TTITLE5=06 - Any Other World
TTITLE6=07 - Billy Brown
TTITLE7=08 - Big Girl (You Are Beautiful)
TTITLE8=09 - Stuck In The Middle
TTITLE9=10 - Happy Ending - Over My Shoulder
EXTD=
EXTT0=
EXTT1=
EXTT2=
EXTT3=
EXTT4=
EXTT5=
EXTT6=
EXTT7=
EXTT8=
EXTT9=
PLAYORDER=
